<svg width="24" height="24" viewBox="0 0 24 24" fill="none" xmlns="http://www.w3.org/2000/svg">
<path d="M10.8176 4.29819C11.2052 4.69162 11.2005 5.32476 10.8071 5.71236L5.43992 11H21C21.5523 11 22 11.4477 22 12C22 12.5523 21.5523 13 21 13H5.43992L10.8071 18.2876C11.2005 18.6752 11.2052 19.3084 10.8176 19.7018C10.43 20.0952 9.79688 20.1 9.40345 19.7124L2.29819 12.7124C2.10742 12.5244 2 12.2678 2 12C2 11.7322 2.10742 11.4756 2.29819 11.2876L9.40345 4.28764C9.79688 3.90004 10.43 3.90476 10.8176 4.29819Z" fill="#127277"/>
</svg>
