<svg width="48" height="48" viewBox="0 0 48 48" fill="none" xmlns="http://www.w3.org/2000/svg">
<path fill-rule="evenodd" clip-rule="evenodd" d="M45.6428 38.9001H2.2575C1.02171 38.9001 0.0200195 37.8985 0.0200195 36.663V11.3064C0.0200195 10.071 1.02171 9.06982 2.2575 9.06982H45.6428C46.8786 9.06982 47.8803 10.071 47.8803 11.3064V36.663C47.8803 37.8985 46.8786 38.9001 45.6428 38.9001Z" fill="white"/>
<path fill-rule="evenodd" clip-rule="evenodd" d="M35.8902 16.0395C36.1304 12.7862 37.3145 12.0079 39.2686 12.0351C41.2205 12.0622 42.3823 12.8712 42.5355 16.1201C42.6016 16.0823 42.6979 16.063 42.8337 16.1075C43.345 16.2748 43.3435 17.0403 43.0368 18.4464C42.8218 19.4293 42.464 19.3646 42.297 19.2691C41.9705 20.5811 41.3512 21.5287 40.5625 22.0309C40.2542 23.1367 40.6472 26.1909 41.1643 26.3896C41.5596 27.9067 36.6027 27.9971 36.8044 26.4608C36.8236 26.3143 37.5224 25.016 37.5236 23.9309C37.5243 23.261 37.4881 22.5711 37.4143 21.7693C36.7711 21.2071 36.2823 20.3079 36.032 19.1302C35.899 19.2269 35.5052 19.4048 35.3111 18.3176C35.059 16.906 35.0793 16.1418 35.5679 15.9882C35.7293 15.9373 35.8303 15.9832 35.8902 16.0395Z" fill="#FFC4B8"/>
<path fill-rule="evenodd" clip-rule="evenodd" d="M40.738 21.7864C40.738 21.7864 40.2061 22.6836 39.1279 22.7129C38.0497 22.7422 37.3712 21.6463 37.3712 21.6463C37.3712 21.6463 37.3465 22.4639 39.0369 23.2731C40.4649 22.7119 40.738 21.7864 40.738 21.7864ZM39.1913 19.3921C38.969 19.4627 38.7462 19.2875 38.7569 19.0507L38.826 17.524L39.1913 19.3921Z" fill="#F4A48D"/>
<path fill-rule="evenodd" clip-rule="evenodd" d="M35.3652 16.0829C35.0608 16.3668 35.0773 17.1002 35.2927 18.3061C35.4868 19.3933 35.8806 19.2154 36.0136 19.1187C36.2639 20.2964 36.7527 21.1956 37.3959 21.7578C37.4697 22.5596 37.5059 23.2495 37.5052 23.9194C37.5045 24.5595 37.261 25.2738 37.0575 25.7821C35.2884 26.0511 32.9808 26.2456 33.3159 25.3575C33.8491 23.9423 34.1708 20.3717 34.2234 16.5546C34.276 12.7384 36.0576 10.8243 39.174 10.8672L39.2456 10.8682C42.3626 10.9112 44.0908 12.874 44.0382 16.69C43.9856 20.5071 44.2088 24.0852 44.7033 25.5146C45.0223 26.4369 42.5803 26.138 40.8033 25.8089C40.4807 24.8268 40.3098 22.8601 40.5441 22.0194C41.3328 21.5172 41.9521 20.5696 42.2786 19.2576C42.4456 19.3531 42.8034 19.4178 43.0184 18.4349C43.3115 17.0913 43.3259 16.3327 42.8805 16.1219C42.8679 17.1212 42.7149 17.9206 42.7149 17.9206L42.3783 17.916C42.4135 15.4268 41.3427 13.4013 41.3427 13.4013C40.3925 14.7445 38.5724 14.9285 37.527 15.4216C35.8149 16.2285 35.8896 17.8287 35.8896 17.8287L35.5537 17.8242C35.4326 17.0831 35.3708 16.5322 35.3652 16.0829Z" fill="#1BB3BC"/>
<path fill-rule="evenodd" clip-rule="evenodd" d="M5.16542 11.1001C4.43333 11.1001 3.83984 11.6928 3.83984 12.424V16.4962C3.83984 17.2274 4.43333 17.8201 5.16542 17.8201H14.8143C15.5464 17.8201 16.1398 17.2274 16.1398 16.4962V12.424C16.1398 11.6928 15.5464 11.1001 14.8143 11.1001H5.16542Z" fill="#CEDEE7"/>
<path d="M30.1665 35.0498V36.8467H26.6323V35.0498H30.1665ZM25.6138 35.0498V36.8467H22.0796V35.0498H25.6138ZM23.4028 23.2666V24.6436H14.2378V23.2666H23.4028ZM14.2026 26.2666H23.3677V27.6436H14.2026V26.2666ZM21.0464 35.0498V36.8467H17.5122V35.0498H21.0464ZM16.4937 35.0498V36.8467H12.9604V35.0498H16.4937ZM13.0044 26.2666V27.6436H3.84033V26.2666H13.0044ZM12.98 23.2666V24.6436H3.81494V23.2666H12.98ZM11.9312 35.0498V36.8467H8.39697V35.0498H11.9312ZM7.37939 35.0498V36.8467H3.84521V35.0498H7.37939Z" fill="#9BC3D3"/>
</svg>
