<svg width="48" height="48" viewBox="0 0 48 48" fill="none" xmlns="http://www.w3.org/2000/svg">
<path d="M24 4C27.0088 4 29.7958 4.94912 32.0781 6.56429C35.661 9.09983 38 13.2768 38 18C38 19.8543 37.6395 21.6245 36.9847 23.2441C35.9865 25.7133 34.3045 27.8327 32.1735 29.3677C30.9205 30.2702 30 31.6368 30 33.1809V34H18V33.1809C18 31.6368 17.0795 30.2702 15.8265 29.3677C12.2976 26.8258 10 22.6812 10 18C10 10.268 16.268 4 24 4Z" fill="#FFDC70"/>
<path d="M32.0781 6.56429C29.7958 4.94912 27.0088 4 24 4C16.268 4 10 10.268 10 18C10 22.3753 12.0071 26.2819 15.1508 28.8492C13.1813 26.4374 12 23.3566 12 20C12 12.268 18.268 6 26 6C29.0088 6 31.7958 6.94912 34.0781 8.56429C34.342 8.75105 34.5992 8.94671 34.8492 9.15084C34.0473 8.16893 33.1148 7.29791 32.0781 6.56429Z" fill="#FFEBAE"/>
<path d="M14 38C14 35.7909 15.7909 34 18 34H30C32.2091 34 34 35.7909 34 38V40C34 42.2091 32.2091 44 30 44H18C15.7909 44 14 42.2091 14 40V38Z" fill="#CEDEE7"/>
<path fill-rule="evenodd" clip-rule="evenodd" d="M19.4454 17.1681C19.9049 16.8617 20.5258 16.9859 20.8322 17.4454L24.0001 22.1973L27.1681 17.4454C27.4744 16.9859 28.0953 16.8617 28.5548 17.1681C29.0143 17.4744 29.1385 18.0953 28.8322 18.5548L25.0001 24.3029V34.0001L23.0001 34.0001V24.3029L19.1681 18.5548C18.8617 18.0953 18.9859 17.4744 19.4454 17.1681Z" fill="#856300"/>
<path d="M20.4531 44H30.0002C32.2093 44 34.0002 42.2091 34.0002 40V38C34.0002 35.7909 32.2093 34 30.0002 34H26.2266L20.4531 44Z" fill="#9BC3D3"/>
</svg>
