<svg width="48" height="48" viewBox="0 0 48 48" fill="none" xmlns="http://www.w3.org/2000/svg">
<path d="M12 8C12 5.79086 13.7909 4 16 4H32C34.2091 4 36 5.79086 36 8V40C36 42.2091 34.2091 44 32 44H16C13.7909 44 12 42.2091 12 40V8Z" fill="#23779A"/>
<path fill-rule="evenodd" clip-rule="evenodd" d="M12 37.8563V40C12 42.2091 13.7909 44 16 44H32C34.2091 44 36 42.2091 36 40V8C36 5.79086 34.2091 4 32 4H31.547L12 37.8563Z" fill="#184E62"/>
<path d="M20 7C20 6.44772 20.4477 6 21 6H27C27.5523 6 28 6.44772 28 7C28 7.55228 27.5523 8 27 8H21C20.4477 8 20 7.55228 20 7Z" fill="#F5F9FB"/>
<path d="M22 41C22 40.4477 22.4477 40 23 40H25C25.5523 40 26 40.4477 26 41C26 41.5523 25.5523 42 25 42H23C22.4477 42 22 41.5523 22 41Z" fill="#F5F9FB"/>
<path d="M14 10H34V38H14V10Z" fill="#F5F9FB"/>
</svg>
