<svg width="124" height="124" viewBox="0 0 124 124" fill="none" xmlns="http://www.w3.org/2000/svg">
<path fill-rule="evenodd" clip-rule="evenodd" d="M10.335 105.882V101.989C10.335 93.5477 21.0804 87.8331 30.936 87.8331C35.812 87.8331 41.0409 89.2775 44.7336 90.2975C46.7365 90.8508 48.2874 91.2792 49.085 91.2846C49.8825 91.2792 51.4334 90.8508 53.4363 90.2975C57.129 89.2775 62.3579 87.8331 67.2339 87.8331C77.0895 87.8331 87.835 93.5477 87.835 101.989V105.882C87.835 110.181 84.3652 113.666 80.085 113.666H18.085C13.8048 113.666 10.335 110.181 10.335 105.882Z" fill="#EC0000"/>
<path fill-rule="evenodd" clip-rule="evenodd" d="M32.1689 113.666H80.0821C84.3624 113.666 87.8321 110.181 87.8321 105.882V101.989C87.8321 93.5477 77.0867 87.8331 67.2311 87.8331C62.3551 87.8331 57.1262 89.2775 53.4335 90.2975C51.4307 90.8508 49.8797 91.2792 49.0821 91.2846C48.3947 91.28 47.1474 90.961 45.5333 90.5187L32.1689 113.666Z" fill="#CC0000"/>
<path d="M64.4751 69.4823L66.3735 53.7153C67.6849 43.7178 58.6005 36.1669 49.0931 36.1669C39.0159 36.1669 30.2892 44.2098 31.8471 53.8045L33.7193 69.4144C35.1005 77.1026 41.1098 82.6669 49.0931 82.6669C57.1019 82.6669 63.2799 77.3456 64.4751 69.4823Z" fill="#F67F7F"/>
<path fill-rule="evenodd" clip-rule="evenodd" d="M41.1068 80.5142C40.0367 78.758 39.2764 76.7544 38.8859 74.5811L37.0138 58.9711C35.4559 49.3765 44.1826 41.3335 54.2597 41.3335C57.8609 41.3335 61.4013 42.4168 64.3391 44.306C61.25 39.3444 55.2606 36.1669 49.0931 36.1669C39.0159 36.1669 30.2892 44.2098 31.8471 53.8045L33.7193 69.4144C34.5842 74.2288 37.264 78.2104 41.1068 80.5142Z" fill="#FAB2B2"/>
<path fill-rule="evenodd" clip-rule="evenodd" d="M93.6211 53.1753C106.462 53.1753 116.871 42.766 116.871 29.9253C116.871 17.0846 106.462 6.67529 93.6211 6.67529C80.7804 6.67529 70.3711 17.0846 70.3711 29.9253C70.3711 42.766 80.7804 53.1753 93.6211 53.1753ZM105.939 23.8293C106.852 22.7331 106.704 21.1041 105.608 20.1908C104.512 19.2776 102.883 19.4255 101.97 20.5216L90.8643 33.8482L85.1146 28.0988C84.1055 27.0897 82.4701 27.0897 81.4609 28.0988C80.4521 29.1076 80.4521 30.7433 81.4609 31.7521L89.2109 39.5021C89.4367 39.7279 89.6997 39.9073 89.9854 40.0347C90.349 40.1968 90.7489 40.2744 91.1548 40.2561C91.8797 40.223 92.5577 39.8868 93.0222 39.3293L105.939 23.8293Z" fill="#63BA68"/>
</svg>
