<svg width="32" height="32" viewBox="0 0 32 32" fill="none" xmlns="http://www.w3.org/2000/svg">
<path d="M17.3189 3.21346C17.2624 2.90246 16.9902 2.66663 16.6629 2.66663C16.2947 2.66663 15.9963 2.9651 15.9963 3.33329L15.9951 4.25177C14.4204 4.40233 13.1944 5.36476 13.1944 6.78898C13.1944 8.14875 13.8963 8.84035 15.6394 9.61502L16.1939 9.85066L17.2103 10.2613C18.5223 10.8168 18.9533 11.1821 18.9533 11.7242C18.9533 12.5821 18.1651 13.0937 16.5964 13.0937C15.8166 13.0937 15.1848 12.9463 14.6857 12.7055C14.4072 12.5711 14.243 12.448 14.1858 12.3886L14.0949 12.3098C13.8383 12.1252 13.4787 12.1444 13.2431 12.3715C12.9781 12.6271 12.9704 13.0492 13.226 13.3142C13.388 13.4821 13.6783 13.6998 14.1062 13.9063C14.6412 14.1645 15.2705 14.3394 15.9948 14.4017L15.9963 15.332L16.007 15.4519C16.0635 15.7629 16.3357 15.9987 16.6629 15.9987C17.0311 15.9987 17.3296 15.7002 17.3296 15.332L17.3292 14.3894C19.1309 14.1968 20.2866 13.2693 20.2866 11.7242C20.2866 10.4873 19.6467 9.87307 17.9847 9.14252L17.4551 8.91913L16.9859 8.73199L16.4268 8.50309C15.0093 7.89893 14.5277 7.47207 14.5277 6.78898C14.5277 6.1006 15.3068 5.56444 16.4327 5.56444C16.9797 5.56444 17.5626 5.69753 18.1356 5.92125L18.4531 6.0545C18.5008 6.07599 18.5457 6.09698 18.5877 6.11722L18.8027 6.22789L18.8809 6.27306C19.1959 6.46367 19.6058 6.36284 19.7964 6.04783C19.987 5.73283 19.8862 5.32294 19.5712 5.13232C19.5384 5.11248 19.5019 5.09127 19.462 5.06895L19.1817 4.92343C19.0218 4.84581 18.8333 4.7623 18.6205 4.67921C18.1964 4.51363 17.764 4.38691 17.3295 4.31115L17.3296 3.33329L17.3189 3.21346ZM10.0002 18.6511L3.33356 18.6485C2.96527 18.6483 2.66663 18.9468 2.66663 19.3151V26.2752C2.66663 27.9669 4.03308 29.3176 5.72687 29.3176H9.99996C10.3681 29.3176 10.6666 29.0191 10.6666 28.6509V27.8098L16.3315 29.0762L16.7976 29.1581C18.9473 29.5019 20.747 29.3096 22.4692 28.7188L28.1558 25.7773L28.3431 25.6458C29.2998 24.9215 29.5836 23.8369 29.084 22.8012C28.5526 21.6997 27.2154 21.4285 26.1681 21.9639L23.9537 23.003C23.803 22.0478 22.9764 21.3172 21.9782 21.3172H17.5875L17.4059 21.307C17.0459 21.2661 16.7083 21.1046 16.4496 20.8458L16.2586 20.6709C15.7311 20.2289 15.0627 19.9839 14.3689 19.9839L10.6666 19.9831V19.3178C10.6666 18.9497 10.3683 18.6513 10.0002 18.6511ZM10.6666 21.3165L14.3689 21.3172L14.5505 21.3275C14.9105 21.3684 15.2481 21.5299 15.5068 21.7887L15.6978 21.9636C16.2253 22.4056 16.8937 22.6506 17.5875 22.6506H21.9782L22.0982 22.6613C22.4094 22.7177 22.6449 22.9898 22.6449 23.3172C22.6449 23.4673 22.5954 23.6058 22.5088 23.715C22.4809 23.7412 22.4556 23.7695 22.4357 23.8024C22.3164 23.9149 22.1555 23.9839 21.9782 23.9839H17.9782L17.8584 23.9947C17.5474 24.0511 17.3115 24.3233 17.3115 24.6506C17.3115 25.0188 17.61 25.3172 17.9782 25.3172H21.9782L22.1803 25.3072C22.6456 25.2605 23.0636 25.0546 23.3793 24.7447L26.7545 23.1612L26.8929 23.101C27.3095 22.9502 27.7305 23.0642 27.8831 23.3805C28.1164 23.8642 27.9829 24.3008 27.4836 24.6279L21.9459 27.4964L21.6128 27.6025C20.1581 28.0372 18.5526 28.1437 16.6021 27.7707L10.6666 26.4431V21.3165ZM3.99996 19.9821L9.33329 19.9842V27.9842H5.72687C4.76602 27.9842 3.99996 27.227 3.99996 26.2752V19.9821Z" fill="#EC0000"/>
</svg>
