<svg width="115" height="108" viewBox="0 0 115 108" fill="none" xmlns="http://www.w3.org/2000/svg">
<path fill-rule="evenodd" clip-rule="evenodd" d="M53.8871 8.55294C40.6621 19.4064 29.3095 17.0845 21.7524 16.2343C6.67356 14.5371 1.82443 29.1379 7.82822 39.6969C13.8323 50.2556 19.0701 63.2149 6.47365 74.3984C-6.12256 85.5816 9.99388 111.273 30.7801 102.818C51.566 94.3627 75.502 94.1008 86.7867 101.412C98.0716 108.724 121.146 88.9503 101.207 71.3774C81.2679 53.8045 93.267 45.2093 99.3245 36.3946C105.382 27.5797 101.937 12.1278 83.404 5.51344C83.404 5.51344 67.1125 -2.30023 53.8871 8.55294Z" fill="#EFF6F9"/>
<path fill-rule="evenodd" clip-rule="evenodd" d="M114.151 100.7C114.151 103.46 88.9635 105.696 57.8927 105.696C26.8218 105.696 1.63403 103.46 1.63403 100.7C1.63403 97.9408 26.8218 95.7041 57.8927 95.7041C88.9635 95.7041 114.151 97.9408 114.151 100.7Z" fill="#CEDEE7"/>
<path d="M90.7259 99.1028C90.6738 98.9325 90.5856 98.7759 90.4544 98.6616C90.3855 98.6014 90.3063 98.5541 90.2391 98.4917C89.9232 98.1976 89.9591 97.9168 89.4945 97.9806C88.9657 98.0531 88.439 98.1504 87.9118 98.2354C87.891 98.2387 87.869 98.2425 87.8527 98.2564C87.8292 98.2763 87.8238 98.3107 87.8201 98.342C87.7983 98.5246 87.7766 98.7072 87.7548 98.8899C87.696 99.3837 87.2536 99.5282 86.8911 99.7233C86.798 99.7735 86.7014 99.8241 86.603 99.8761C86.1919 100.094 84.9456 100.579 85.5607 101.223C85.815 101.489 86.2554 101.489 86.594 101.523C86.9209 101.556 87.25 101.478 87.5724 101.433C88.6065 101.237 89.5601 100.931 90.4962 100.432C90.8316 100.253 90.8099 99.7472 90.7799 99.3878C90.7719 99.2919 90.7541 99.1953 90.7259 99.1028Z" fill="#444444"/>
<path d="M80.0488 98.9967C80.0315 98.9149 80.0037 98.8401 79.9623 98.7771C79.9092 98.696 79.8348 98.6314 79.7846 98.5484C79.6555 98.3354 79.7031 98.0339 79.5442 97.8436C79.3199 97.5749 78.9398 97.697 78.6515 97.7156C78.2082 97.7444 77.756 97.7226 77.3118 97.7261C77.2906 97.7262 77.2684 97.7268 77.2502 97.7379C77.2242 97.7541 77.214 97.7874 77.2059 97.8179C77.1587 97.9951 77.1114 98.1726 77.0642 98.35C76.9364 98.8295 76.4786 98.9053 76.0925 99.0436C75.9932 99.0791 75.8905 99.1146 75.786 99.1512C75.4472 99.27 74.9586 99.3631 74.6917 99.6246C74.0871 100.217 75.1479 100.677 75.5449 100.779C75.8637 100.862 76.2004 100.834 76.5257 100.838C77.5762 100.801 78.5628 100.643 79.559 100.291C79.6577 100.256 79.7599 100.219 79.8341 100.143C79.9013 100.074 79.9387 99.9801 79.9675 99.8869C80.0399 99.6524 80.1095 99.2829 80.0488 98.9967Z" fill="#444444"/>
<path d="M82.7841 66.9201L82.0579 73.6458L80.012 98.3509L76.7609 98.1787L75.438 84.7613L75.0491 73.3798L76.2905 66.1208L82.7841 66.9201Z" fill="#727272"/>
<path d="M89.2464 67.0001L90.3007 71.1272L89.1317 82.888L90.5053 98.5352L87.4169 98.7967L83.4096 83.8287L80.2484 67.452L89.2464 67.0001Z" fill="#727272"/>
<path fill-rule="evenodd" clip-rule="evenodd" d="M92.3455 65.5448C92.2878 63.4659 92.089 61.3748 91.8067 59.2776C91.5521 57.3841 91.2284 55.4853 90.878 53.5778C90.3286 50.5862 89.8291 47.9504 88.7278 45.1054C88.3367 44.095 87.9353 43.0666 87.26 42.2253C86.638 41.4501 85.7098 40.9177 84.7779 40.6057C84.3427 40.4599 83.8527 40.3356 83.4171 40.2368C82.9237 40.1251 82.676 40.3479 82.2035 40.5503C81.8859 40.6862 81.5132 40.7225 81.1841 40.8378C79.2293 41.5231 78.113 42.903 77.4515 44.8619C76.9193 46.4382 76.387 48.0143 75.8549 49.5904C75.4177 50.8848 74.9806 52.1796 74.6015 53.4926C73.6094 56.9301 73.0231 60.4722 72.5924 64.023C72.3764 65.803 72.1996 67.5878 72.0293 69.373C71.9205 70.5139 72.5008 70.0339 73.1858 69.6854C74.3664 69.0847 75.5391 68.4511 76.8633 68.2341C77.5063 68.1288 78.1614 68.1237 78.8128 68.1329C82.7756 68.1896 86.7528 68.7791 90.4746 70.1411C90.6959 70.2219 90.9207 70.3082 91.1014 70.4595C91.3425 70.6613 91.669 71.1202 92.0174 70.8804C92.2339 70.7313 92.2864 70.2227 92.3258 69.9937C92.4848 69.0748 92.4537 68.1132 92.423 67.1851C92.3973 66.4173 92.3518 65.7746 92.3455 65.5448Z" fill="#008035"/>
<path d="M71.5846 53.5769C70.9338 54.7667 70.1519 56.0959 69.9148 57.4496C69.7734 58.257 70.2985 59.0284 70.9538 59.4494C71.7763 59.9778 72.6625 59.8362 73.599 59.7974C74.1691 59.7738 80.2099 59.4486 80.2096 59.1818C80.2086 58.0319 80.2076 56.8822 80.2066 55.7323C78.6816 55.4326 77.1427 55.2085 75.5968 55.0608C76.7524 53.3338 83.3075 43.0889 80.258 41.9269C77.3543 40.8204 72.7243 51.493 71.5846 53.5769Z" fill="#008035"/>
<path fill-rule="evenodd" clip-rule="evenodd" d="M85.0486 33.4319C86.17 32.608 86.8983 31.2799 86.8983 29.783C86.8983 27.2855 84.8706 25.2578 82.3731 25.2578C80.067 25.2578 78.1615 26.9865 77.883 29.2176C77.8343 29.4501 77.7989 29.6851 77.7745 29.9201L77.7744 29.9205L77.7737 29.9256L77.7735 29.9275C77.7663 29.9978 77.76 30.068 77.7547 30.1382L77.443 33.63L78.1524 33.8675L78.1598 33.8692L78.1599 33.8692C78.1775 33.93 78.1872 33.9629 78.1872 33.9629L78.2065 34.4353L78.2414 35.3181C78.2534 35.6103 78.3145 35.8966 78.4209 36.1657C78.4952 36.3557 78.5934 36.5377 78.7135 36.7066C78.8544 36.9048 79.0228 37.0826 79.2108 37.2327C79.3087 37.3116 79.4128 37.3819 79.5215 37.4445C79.5791 37.4777 79.6365 37.5083 79.6961 37.5369L79.6965 37.5371L79.3918 43.0527C79.3918 43.0527 81.0019 43.5379 82.7651 43.1529C83.8308 42.9222 84.9536 42.3713 85.81 41.2051C85.81 41.2051 84.7963 36.8113 85.0486 33.4319Z" fill="#FFC4B8"/>
<path fill-rule="evenodd" clip-rule="evenodd" d="M82.7481 43.0874C83.814 42.8567 84.9366 42.3058 85.7931 41.1397C85.7931 41.1397 84.6966 36.4316 85.0683 33.0101C85.0683 33.0101 82.5741 39.091 82.7481 43.0874ZM78.1531 33.8871C78.4015 33.96 78.646 33.7649 78.6298 33.5069L78.5253 31.8436L78.1531 33.8871Z" fill="#F4A48D"/>
<path fill-rule="evenodd" clip-rule="evenodd" d="M83.8386 25.5545C81.8495 25.4847 82.0937 23.7764 82.0937 23.7764C79.965 23.8462 79.0576 24.648 79.0576 24.648C77.3475 26.0075 78.0255 28.7349 78.0255 28.7349C78.2865 26.6768 81.4391 27.5542 82.6732 27.7609C83.1775 28.2554 82.9829 29.4625 83.2385 30.48C83.2432 30.4984 83.7916 31.8755 83.7916 31.8755L83.7923 31.8771L83.8232 32.0202C83.8322 31.9968 83.8417 31.9734 83.8516 31.95C84.1833 31.1647 84.8591 30.7002 85.3605 30.9114C85.8623 31.1229 85.9998 31.9308 85.6681 32.7161C85.5525 32.9897 85.2606 33.2243 85.0835 33.4051C84.9459 34.5581 84.9717 35.6291 85.0687 36.5486L85.5833 36.5708L87.4332 27.7857C87.5708 26.6097 87.0465 26.073 86.2073 25.8158C85.554 25.6154 84.7099 25.585 83.8386 25.5545Z" fill="black"/>
<path fill-rule="evenodd" clip-rule="evenodd" d="M108.889 73.6429C108.882 73.6594 108.876 73.6768 108.871 73.6948C108.86 73.7101 108.849 73.7256 108.84 73.742L108.825 73.7669L108.821 73.7733L108.783 73.8115C108.769 73.8253 108.753 73.8414 108.755 73.8352C108.75 73.8344 108.75 73.8362 108.747 73.842C108.73 73.8498 108.714 73.8583 108.698 73.8682C108.661 73.8827 108.623 73.9017 108.576 73.9093C108.398 73.9546 108.165 73.9249 108.002 73.8435C107.921 73.8024 107.857 73.7513 107.814 73.6983C107.799 73.6692 107.777 73.6432 107.769 73.6111L107.764 73.5997L107.761 73.5942L107.759 73.5914C107.758 73.5863 107.766 73.6296 107.762 73.6078L107.751 73.5529L107.74 73.4979L107.74 73.4788C107.734 73.4593 107.737 73.4123 107.741 73.3902C107.744 73.3629 107.752 73.3419 107.764 73.3191C107.79 73.2756 107.846 73.2194 107.936 73.1725C108.118 73.0782 108.378 73.0262 108.633 73.0049C108.689 73.0003 108.746 73.001 108.803 72.9987C108.824 73.043 108.843 73.0877 108.858 73.1321C108.925 73.3282 108.944 73.5133 108.889 73.6429ZM112.524 75.9065C112.525 75.8014 112.518 75.6808 112.505 75.5456C112.479 75.2761 112.429 74.9449 112.295 74.5826C112.164 74.2221 111.959 73.8222 111.627 73.4635C111.295 73.1043 110.861 72.7873 110.315 72.5878C110.253 72.5667 110.191 72.5455 110.129 72.5239L110.082 72.5077L110.058 72.4997L110.02 72.4888L109.914 72.461C109.88 72.4527 109.846 72.448 109.813 72.4406C109.725 72.2222 109.614 72.0193 109.479 71.8342C109.372 71.6875 109.257 71.5465 109.115 71.4217C109.055 71.3611 108.954 71.2867 108.866 71.2224C108.841 71.2036 108.826 71.194 108.811 71.1854L108.766 71.1571L108.721 71.1288L108.71 71.1219L108.666 71.0974L108.635 71.0822C107.964 70.7562 107.288 70.7329 106.702 70.8136C106.111 70.8945 105.59 71.0954 105.147 71.3417C104.924 71.4613 104.725 71.6049 104.548 71.7531C104.37 71.9014 104.21 72.054 104.083 72.2185C103.819 72.5385 103.661 72.8742 103.585 73.1579C103.507 73.4424 103.506 73.6709 103.516 73.8268C103.531 73.9733 103.547 74.048 103.547 74.048L103.667 74.0544C103.667 74.0544 103.688 73.9806 103.726 73.8419C103.771 73.7173 103.844 73.5314 103.979 73.3298C104.115 73.1296 104.307 72.9108 104.574 72.7174C104.835 72.5182 105.171 72.347 105.551 72.2104C105.932 72.0777 106.366 71.9894 106.812 71.9707C107.256 71.9556 107.718 72.019 108.073 72.1962C108.134 72.2249 108.199 72.2686 108.265 72.3202C108.058 72.339 107.844 72.3774 107.616 72.4675C107.441 72.5404 107.248 72.6591 107.102 72.8571C107.03 72.9551 106.974 73.0704 106.943 73.1873C106.912 73.3085 106.898 73.4118 106.904 73.5408C106.908 73.7231 106.962 73.9702 107.086 74.17C107.211 74.3665 107.38 74.5159 107.56 74.6244C107.741 74.7352 107.934 74.7987 108.131 74.8383C108.328 74.8782 108.532 74.8844 108.741 74.8528C108.845 74.8412 108.951 74.8102 109.057 74.7749L109.214 74.7075C109.275 74.6737 109.338 74.6335 109.397 74.5918C109.432 74.5672 109.443 74.5566 109.457 74.5449L109.5 74.5082L109.522 74.4899L109.527 74.4852C109.502 74.5111 109.569 74.4451 109.564 74.4486L109.578 74.4324L109.632 74.3673L109.738 74.2339L109.821 74.084C109.882 73.9844 109.908 73.8745 109.945 73.7669C109.967 73.6602 109.99 73.5489 109.994 73.4437C109.998 73.3384 110.002 73.2312 109.989 73.1325C109.987 73.1177 109.985 73.1035 109.983 73.0888C110.041 73.1028 110.098 73.1167 110.155 73.1306C110.602 73.2468 111.014 73.4837 111.324 73.7639C111.64 74.0452 111.858 74.3828 112.009 74.7005C112.162 75.0196 112.241 75.3247 112.296 75.5767C112.322 75.7034 112.342 75.8175 112.352 75.9182C112.365 76.0184 112.375 76.1042 112.377 76.1741C112.384 76.3142 112.389 76.3888 112.389 76.3888L112.509 76.3924C112.509 76.3924 112.513 76.3159 112.52 76.1722C112.527 76.1003 112.526 76.0112 112.524 75.9065Z" fill="#FFC4B8"/>
<path fill-rule="evenodd" clip-rule="evenodd" d="M77.6652 101.574C77.6652 101.574 71.5739 104.13 66.8579 101.574V86.8962H77.6652V101.574Z" fill="#FFC4B8"/>
<path fill-rule="evenodd" clip-rule="evenodd" d="M75.8049 86.8962L71.0206 96.7999L75.8967 99.0725V100.003C75.8967 100.003 71.1808 101.965 66.858 100.73L66.8948 103.373C71.6106 105.928 77.7068 102.554 77.7068 102.554L77.6652 86.8962H75.8049Z" fill="#FFC4B8"/>
<path fill-rule="evenodd" clip-rule="evenodd" d="M66.858 101.763C66.858 101.763 67.1332 99.1947 67.8815 102.454C67.8815 102.454 68.643 100.425 69.0091 102.229C69.0091 102.229 69.1648 102.853 69.0651 103.392C69.0651 103.392 67.644 103.152 66.858 102.557V101.763Z" fill="black"/>
<path fill-rule="evenodd" clip-rule="evenodd" d="M99.6727 101.574C99.6727 101.574 93.5813 104.13 88.6689 101.574V86.8962H99.6727V101.574Z" fill="#FFC4B8"/>
<path fill-rule="evenodd" clip-rule="evenodd" d="M90.8305 97.9874L93.6637 96.2673L90.8573 86.8962H88.6691C88.6754 94.0427 88.6799 99.2074 88.6826 102.39C88.6829 102.687 88.6829 102.742 88.6826 102.554C93.5949 105.11 99.672 103.534 99.672 103.534L99.6727 100.018C97.3148 100.535 93.9744 100.911 90.8305 99.3294V97.9874Z" fill="#FFC4B8"/>
<path fill-rule="evenodd" clip-rule="evenodd" d="M88.6689 101.763C88.6689 101.763 89.0211 99.1947 89.7696 102.454C89.7696 102.454 90.5697 100.425 90.9357 102.229C90.9357 102.229 91.0337 102.853 90.9338 103.392C90.9338 103.392 89.6514 103.152 88.6689 102.557V101.763Z" fill="black"/>
<path fill-rule="evenodd" clip-rule="evenodd" d="M57.5732 73.7718L52.297 73.5618C49.8238 81.2311 53.6229 87.3701 53.6229 87.3701L55.1139 87.1051C55.1137 87.1053 57.3334 89.2545 60.5211 88.9498C64.8516 94.7788 72.665 98.6702 81.5849 98.6702C95.2047 98.6702 106.246 89.5982 106.246 78.4076C106.246 67.2172 95.2047 58.1455 81.5849 58.1455C69.9066 58.1455 60.1249 64.8155 57.5732 73.7718Z" fill="#FFC4B8"/>
<path fill-rule="evenodd" clip-rule="evenodd" d="M96.3952 62.2058C100.018 65.7327 102.202 70.2888 102.202 75.2647C102.202 86.4552 91.1607 95.5272 77.5409 95.5272C71.9828 95.5272 66.8545 94.0157 62.7306 91.4668C67.2542 95.8715 74.0212 98.6702 81.5848 98.6702C95.2047 98.6702 106.246 89.5983 106.246 78.4076C106.246 71.7841 102.377 65.9032 96.3952 62.2058Z" fill="#F4A48D"/>
<path fill-rule="evenodd" clip-rule="evenodd" d="M69.8159 60.5977C69.8159 60.5977 80.5164 55.2971 91.9939 60.0352C91.9939 60.0352 73.5456 56.4495 73.575 63.3931L69.8159 60.5977Z" fill="#F4A48D"/>
<path fill-rule="evenodd" clip-rule="evenodd" d="M54.0722 85.3496C54.0722 85.3496 51.1012 80.5424 52.1291 74.1228C50.0109 81.5281 53.6228 87.3701 53.6228 87.3701L58.3936 86.3132L60.7053 85.3178L54.0722 85.3496Z" fill="#F4A48D"/>
<path fill-rule="evenodd" clip-rule="evenodd" d="M57.3546 87.3702C57.3546 87.3702 59.6421 86.5323 61.1906 85.4248C62.6949 84.3491 60.9773 85.3592 60.9773 85.3592L55.1136 87.1054C55.1136 87.1054 59.0269 90.8934 63.923 87.6957C59.9005 89.102 57.3546 87.3702 57.3546 87.3702Z" fill="#F4A48D"/>
<path fill-rule="evenodd" clip-rule="evenodd" d="M66.0569 52.4159C66.0569 52.4159 73.3989 53.1947 73.5751 63.3932L66.103 66.13L66.0569 52.4159Z" fill="#FFC4B8"/>
<path fill-rule="evenodd" clip-rule="evenodd" d="M53.6228 87.3701C53.6228 87.3701 53.6634 87.3591 53.7395 87.3387C53.8161 87.3206 53.9261 87.2827 54.0666 87.2458C54.2072 87.2094 54.376 87.1569 54.5702 87.0985C54.764 87.0378 54.9836 86.9796 55.2208 86.9046C55.4576 86.828 55.7138 86.7452 55.9861 86.666C56.2595 86.5909 56.5397 86.479 56.8359 86.3897C57.1304 86.2946 57.4348 86.1963 57.7442 86.0964C58.0514 85.9898 58.3637 85.8819 58.676 85.7739C58.9887 85.6679 59.306 85.5747 59.61 85.4582C59.9151 85.3447 60.22 85.2451 60.5127 85.1417C60.8049 85.0379 61.0917 84.9473 61.3631 84.8597C61.6293 84.7584 61.884 84.6692 62.1197 84.5883C62.5899 84.4235 62.9886 84.2984 63.269 84.2133C63.5496 84.1283 63.7132 84.0863 63.7132 84.0863C63.7132 84.0863 63.5716 84.1761 63.3178 84.3221C63.0642 84.4681 62.6993 84.6738 62.2538 84.9047C62.0315 85.0217 61.7902 85.1475 61.5317 85.2733C61.2693 85.3903 60.9928 85.5149 60.7025 85.6336C60.4128 85.7533 60.1157 85.8838 59.8089 86.0039C59.506 86.134 59.1844 86.2301 58.8682 86.3404C58.5495 86.4436 58.2307 86.5461 57.917 86.6474C57.6026 86.7473 57.283 86.814 56.9799 86.8954C56.675 86.9722 56.3818 87.0489 56.0964 87.0972C55.8133 87.1528 55.544 87.1973 55.2959 87.2385C55.0486 87.2825 54.8162 87.299 54.6134 87.3221C54.4108 87.3471 54.232 87.3582 54.0842 87.3631C53.7901 87.3787 53.6228 87.3701 53.6228 87.3701Z" fill="black"/>
<path fill-rule="evenodd" clip-rule="evenodd" d="M66.0569 52.416L66.0914 62.6448L68.3636 65.3021C68.6765 60.8713 67.9805 56.436 66.0873 52.4199C66.0681 52.4175 66.0569 52.416 66.0569 52.416Z" fill="#F4A48D"/>
<path fill-rule="evenodd" clip-rule="evenodd" d="M66.989 63.6946L68.3636 65.3021C68.6227 61.635 68.1881 57.9658 66.9583 54.533L66.989 63.6946Z" fill="#A66555"/>
<path fill-rule="evenodd" clip-rule="evenodd" d="M92.0151 60.8011L88.68 59.5368C85.0581 58.896 81.6351 58.6277 78.0906 59.4913L78.9096 60.3099L92.0151 60.8011Z" fill="#A66555"/>
<path fill-rule="evenodd" clip-rule="evenodd" d="M64.7117 71.4151C64.7117 72.0212 64.22 72.5127 63.6134 72.5127C63.0071 72.5127 62.5151 72.0212 62.5151 71.4151C62.5151 70.8092 63.0071 70.3176 63.6134 70.3176C64.22 70.3176 64.7117 70.8092 64.7117 71.4151Z" fill="black"/>
<path d="M81.9815 56.3812C82.0597 56.3508 82.1181 56.2857 82.1807 56.2296C82.5555 55.8931 83.131 55.865 83.6072 56.0291C84.0003 56.1645 84.4586 56.4302 84.7471 56.7343C85.0421 57.0452 85.0496 57.645 85.0947 58.0679C85.1067 58.1792 85.1159 58.296 85.0729 58.3994C85.0452 58.4664 84.9974 58.5228 84.9506 58.5781C84.8777 58.664 84.8047 58.7498 84.7318 58.8357C84.3377 59.2997 83.5987 59.1347 83.0499 59.1423C82.8093 59.1454 82.5142 59.1157 82.4171 58.8955C82.3386 58.7176 82.4218 58.4647 82.2663 58.348C82.195 58.2947 82.0984 58.2944 82.0094 58.2966C81.0664 58.3188 79.7535 58.3171 78.8106 58.3392C78.7944 57.817 78.8773 56.4219 79.363 56.2374C79.5186 56.1784 80.2176 56.3228 80.4117 56.3245C80.8534 56.3282 81.2949 56.3516 81.7345 56.3947C81.8174 56.4028 81.9038 56.4113 81.9815 56.3812Z" fill="#FFC4B8"/>
<path d="M57.8618 52.2091L4.20398 40.8038C2.67559 40.479 1.70173 38.9689 2.02861 37.4311L8.73735 5.86895C9.06422 4.33114 10.568 3.34829 12.0964 3.67316L65.7541 15.0785C67.2825 15.4033 68.2565 16.9128 67.9296 18.4507L61.2209 50.0128C60.894 51.5506 59.3902 52.534 57.8618 52.2091Z" fill="#EC0000"/>
<path fill-rule="evenodd" clip-rule="evenodd" d="M15.126 20.8299L11.7591 20.1143C11.1545 19.9858 10.5596 20.3748 10.4303 20.9833L9.70999 24.3719C9.58066 24.9803 9.9659 25.5777 10.5704 25.7062L13.9374 26.4219C14.542 26.5504 15.1369 26.1613 15.2662 25.5529L15.9865 22.1643C16.1158 21.5558 15.7306 20.9584 15.126 20.8299Z" fill="#CEDEE7"/>
<path fill-rule="evenodd" clip-rule="evenodd" d="M47.0868 38.3832L58.4944 40.8079L58.1323 42.5118L46.7247 40.0871L47.0868 38.3832ZM34.188 35.6415L45.5956 38.0662L45.2334 39.7701L33.8258 37.3454L34.188 35.6415ZM21.2892 32.8998L32.6969 35.3245L32.3347 37.0284L20.9271 34.6037L21.2892 32.8998ZM8.31584 30.1422L19.7235 32.5669L19.3613 34.2708L7.95366 31.8461L8.31584 30.1422ZM12.9724 36.281L17.3715 37.2161L16.8991 39.4385L12.5 38.5035L12.9724 36.281ZM7.30598 35.0765L11.705 36.0116L11.2326 38.234L6.83358 37.299L7.30598 35.0765Z" fill="#EC0000"/>
<path fill-rule="evenodd" clip-rule="evenodd" d="M58.8854 21.5573C59.0377 21.0816 59.0417 20.5621 58.8812 20.0725L58.6664 19.417L57.8071 16.7945C57.7252 16.5444 57.6863 16.2867 57.6879 16.0309L57.5923 16.1389C57.0267 16.7784 56.8419 17.672 57.1076 18.4831L57.1077 18.4837L57.9994 21.2047C57.9984 21.2044 57.9974 21.204 57.9964 21.2038C58.2173 21.9886 58.0256 22.8369 57.4825 23.451L57.3869 23.559C57.3886 23.3032 57.3496 23.0454 57.2678 22.7954L57.3482 23.0412L56.6232 20.8285L55.9593 18.8025L55.9788 18.8617C55.8968 18.6116 55.8578 18.3538 55.8594 18.098L55.7638 18.2061C55.1983 18.8455 55.0136 19.7392 55.2792 20.5504L55.2793 20.5509L55.3073 20.6363L55.9238 22.5177L55.9239 22.5179L56.1387 23.1733C56.4045 23.9848 56.2198 24.8786 55.6541 25.5181L55.5586 25.6263C55.5603 25.3704 55.5211 25.1126 55.4393 24.8626L55.5199 25.1084L54.3652 21.5845L54.365 21.584C54.2596 21.2623 54.2254 20.9278 54.2574 20.6011C52.1619 20.6434 50.5533 21.3837 50.3061 22.5797C49.9717 24.1985 52.2576 26.039 55.4119 26.6906C58.5662 27.3421 61.3943 26.5581 61.7288 24.9393C61.976 23.7433 60.7925 22.4264 58.8854 21.5573Z" fill="white"/>
<path fill-rule="evenodd" clip-rule="evenodd" d="M27.8686 46.1957L24.1942 47.643L18.187 52.6204L15.4407 43.6953L12.0938 44.296L14.2394 55.1949L17.7578 58.3703L27.8845 52.792L27.8686 46.1957Z" fill="#34466B"/>
<path fill-rule="evenodd" clip-rule="evenodd" d="M47.8071 51.8486L49.2245 50.4532L51.4596 50.5061L51.7147 51.6397L48.3373 53.0987L47.8071 51.8486Z" fill="#FFC4B8"/>
<path fill-rule="evenodd" clip-rule="evenodd" d="M24.4496 72.0368L24.1544 74.9536L26.767 84.9752L24.3411 101.079L26.1267 101.696L30.8355 85.9731L31.5827 81.3993L31.5554 71.7166L24.4496 72.0368Z" fill="#FFC4B8"/>
<path fill-rule="evenodd" clip-rule="evenodd" d="M38.1834 75.2877L34.4275 102.272H32.7201L32.4129 84.9752L29.3057 72.8346L38.1834 75.2877Z" fill="#FFC4B8"/>
<path fill-rule="evenodd" clip-rule="evenodd" d="M24.5439 68.4583C26.0021 58.6418 25.4812 51.4929 25.5568 49.5299C25.6325 47.567 26.9773 46.5484 26.9773 46.5484C27.5681 46.4133 28.0817 46.024 28.6777 45.8703C32.7092 44.8313 34.9083 47.9848 36.4173 51.3863C38.2767 55.5772 39.839 59.9077 41.102 64.3255C42.2104 68.2028 43.3212 72.1149 43.7862 76.1386C44.0961 78.8212 43.6219 80.1435 42.3635 80.1058C38.3604 80.8669 35.3634 81.3722 33.3724 81.6218C29.942 82.0517 26.5068 82.3657 23.0537 82.5127C21.2511 82.5896 23.0857 78.2747 24.5439 68.4583Z" fill="#34466B"/>
<path fill-rule="evenodd" clip-rule="evenodd" d="M12.7472 44.1787L11.2356 42.6655L11.7506 40.005H13.2094L13.6385 42.3221L14.379 42.767V43.8858L12.7472 44.1787Z" fill="#FFC4B8"/>
<path fill-rule="evenodd" clip-rule="evenodd" d="M30.6306 45.6692L34.4925 46.3557L41.463 53.0988L47.7114 50.9055L49.7204 53.4671L41.358 58.3704L32.5187 52.7063L30.6306 45.6692Z" fill="#34466B"/>
<path fill-rule="evenodd" clip-rule="evenodd" d="M26.5631 42.9529C25.3157 42.3224 24.4004 41.0789 24.242 39.5713C23.9957 37.2282 25.6701 35.1289 27.9787 34.8863C30.2255 34.6501 32.2504 36.2591 32.5841 38.5053C32.6159 38.6411 32.6396 38.7804 32.6546 38.9228L32.6546 38.9233C32.6666 39.0372 32.6727 39.1505 32.6732 39.2627L32.8696 42.8523L31.3723 43.677L31.6617 46.4304C30.2753 47.6686 28.7816 47.789 27.1901 46.8916L26.5631 42.9529Z" fill="#FFC4B8"/>
<path fill-rule="evenodd" clip-rule="evenodd" d="M31.2738 43.6668C31.2738 43.6668 26.8106 44.2573 26.5373 42.8919L26.7277 44.0042C26.7277 44.0042 26.8967 44.7645 31.2738 43.6668ZM32.4148 41.9102L31.6992 40.1702L31.5658 41.3612C31.5205 41.7648 31.9751 42.0587 32.4148 41.9102Z" fill="#F4A48D"/>
<path fill-rule="evenodd" clip-rule="evenodd" d="M25.598 47.3512C24.0643 46.9681 22.8675 45.642 22.6907 43.9466C22.5743 42.832 22.9283 41.7788 23.59 40.9923C23.6924 40.8705 23.7299 40.7066 23.6921 40.5504L23.6941 40.5516L23.6916 40.5476L23.6824 40.5092C23.6614 40.4193 23.6431 40.3293 23.627 40.2395C23.6227 40.2151 23.6185 40.1909 23.6146 40.1667C23.3082 38.2378 24.18 36.2403 25.9401 35.2349C26.2311 35.0687 26.5322 34.9378 26.8386 34.8407C26.8682 34.8229 26.898 34.8054 26.9281 34.7883C27.9452 34.2074 29.0847 34.0568 30.1479 34.2785C30.5714 34.3663 30.9824 34.5135 31.3688 34.7158C31.3443 35.0566 31.2897 35.3903 31.2075 35.7135C31.6549 36.0855 32.0431 36.5478 32.3435 37.0921C32.5434 37.4545 32.6926 37.8317 32.7933 38.2151L31.3076 36.6632L30.9879 36.3943C30.3344 38.0556 28.9231 39.3478 27.1439 39.7794C27.1908 40.0541 27.2235 40.3451 27.2299 40.6393C26.9915 40.4133 26.7127 40.3278 26.5293 40.4496C26.3066 40.5977 26.3025 41.0004 26.5072 41.3822L26.5135 41.3939L26.5199 41.4055L26.5214 41.4081L26.5265 41.417L26.5285 41.4206L26.5335 41.4292L26.5353 41.4322L26.542 41.4436L26.5432 41.4456L26.5489 41.455L26.5512 41.4586L26.5563 41.4668L26.5584 41.4703L26.5656 41.4816L26.5716 41.491L26.5737 41.4941L26.5778 41.5003L26.5802 41.5039L26.584 41.5096L26.5865 41.5134L26.5902 41.5188L26.5929 41.5226L26.5965 41.5279L26.5992 41.5318L26.6029 41.537L26.6056 41.5408L26.6094 41.5461L26.612 41.5497L26.6161 41.5554L26.6184 41.5585L26.6249 41.5673L26.6314 41.576L26.638 41.5846L26.6405 41.5878L26.6446 41.5931L26.6473 41.5966L26.6512 41.6016L26.6541 41.6051L26.658 41.6099L26.6608 41.6135L26.6676 41.6218L26.6716 41.6266L26.6744 41.63L26.6787 41.6351L26.6812 41.6381L26.6881 41.6461L26.695 41.654L26.7019 41.6618L26.7045 41.6647L26.7089 41.6696L26.7159 41.6773L26.7229 41.6849L26.726 41.6881L26.7331 41.6956L26.7372 41.7L26.7402 41.703L26.7446 41.7075L26.7473 41.7103L26.7545 41.7175L26.7617 41.7247L26.7689 41.7317L26.7714 41.7342L26.7761 41.7387L26.7791 41.7414L26.7834 41.7455L26.7865 41.7484L26.7907 41.7524L26.7939 41.7552L26.7981 41.7591L26.8012 41.7619L26.8055 41.7658L26.8086 41.7685L26.8131 41.7724L26.816 41.775L26.8234 41.7814L26.8308 41.7877L26.8382 41.7939L26.8457 41.8L26.8486 41.8024L26.8531 41.8061L26.8563 41.8085L26.8607 41.812L26.8638 41.8145L26.8682 41.8179L26.8714 41.8204L26.8758 41.8237L26.8789 41.8261L26.8835 41.8295L26.8865 41.8317L26.8914 41.8353L26.894 41.8373L26.9016 41.8427L26.9091 41.848L26.9167 41.8533L26.9243 41.8584L26.9274 41.8605L26.9319 41.8635L26.9352 41.8656L26.9396 41.8685L26.9473 41.8734L26.9505 41.8754L26.955 41.8783L26.9581 41.8802L26.9657 41.8848L26.9733 41.8893L26.981 41.8938L26.9886 41.8981L26.9963 41.9023L26.9993 41.904L27.0039 41.9065L27.0071 41.9082L27.0116 41.9106L27.0148 41.9122L27.0193 41.9145L27.0224 41.9161L27.027 41.9184L27.0301 41.9199L27.0377 41.9236L27.0433 41.9263C27.1809 41.9907 27.3161 42.0053 27.4261 41.9589C28.2101 42.7775 29.3677 44.2147 28.952 45.2076C28.9514 45.2091 28.9508 45.2105 28.9501 45.2119C28.8644 45.4148 28.6534 45.5266 28.4434 45.4941L28.4426 45.4986L27.3341 45.1692C27.1519 45.1148 27.0765 45.107 26.9373 45.076C26.8646 45.2461 26.804 45.3449 26.7161 45.5107C26.3468 46.2066 25.9145 46.8804 25.598 47.3512Z" fill="black"/>
<path d="M31.4094 44.4288C31.4094 44.4288 31.9893 44.4794 32.0513 44.4821C34.0118 44.5671 35.8324 45.4635 36.1801 47.4353C36.268 47.9337 35.6857 48.8519 34.7487 48.5127C33.8604 48.1912 33.5784 46.971 32.3337 46.5906C32.0517 46.5044 31.7654 46.4506 31.4911 46.4145L31.4758 45.2963C31.4236 44.7657 31.4014 44.4765 31.4094 44.4288Z" fill="black"/>
<path d="M32.0527 56.3129L26.9573 46.5947L28.5025 46.0517L29.6174 45.7241L31.5828 45.857L32.0527 56.3129Z" fill="#EFF6F9"/>
<path fill-rule="evenodd" clip-rule="evenodd" d="M34.49 101.423L32.4912 101.491L32.2681 103.148L32.3095 103.155L32.2995 103.157L35.1092 104.329L36.3701 104.318L36.3502 102.951L35.9836 102.756L34.49 101.423Z" fill="black"/>
<path fill-rule="evenodd" clip-rule="evenodd" d="M26.5423 100.569L28.8497 102.304L28.5794 103.645L23.7222 102.88L24.3631 100.569H26.5423Z" fill="black"/>
</svg>
