<svg width="20" height="20" viewBox="0 0 20 20" fill="none" xmlns="http://www.w3.org/2000/svg">
<path d="M10 0C15.5142 0 20 4.48584 20 10C20 15.5142 15.5142 20 10 20C4.48584 20 0 15.5142 0 10C0 4.48584 4.48584 0 10 0ZM10 1C5.0376 1 1 5.0376 1 10C1 14.9624 5.0376 19 10 19C14.9624 19 19 14.9624 19 10C19 5.0376 14.9624 1 10 1ZM10 8C10.2457 8 10.4499 8.17679 10.4922 8.41016L10.5 8.5V15.5C10.5 15.7764 10.2764 16 10 16C9.75434 16 9.55011 15.8232 9.50781 15.5898L9.5 15.5V8.5C9.5 8.22363 9.72363 8 10 8ZM10 4C10.2457 4 10.4499 4.17679 10.4922 4.41016L10.5 4.5V5.5C10.5 5.77637 10.2764 6 10 6C9.75434 6 9.55011 5.82321 9.50781 5.58984L9.5 5.5V4.5C9.5 4.22363 9.72363 4 10 4Z" fill="#23779A"/>
</svg>
