<svg width="28" height="18" viewBox="0 0 28 18" fill="none" xmlns="http://www.w3.org/2000/svg">
<path d="M27.3226 1.21344C27.2662 0.902284 26.9942 0.666687 26.6666 0.666687H1.33329L1.21338 0.677418C0.902223 0.733817 0.666626 1.00581 0.666626 1.33335V17.3334L0.677357 17.4533C0.733756 17.7644 1.00575 18 1.33329 18H26.6666L26.7865 17.9893C27.0977 17.9329 27.3333 17.6609 27.3333 17.3334V1.33335L27.3226 1.21344ZM6.59924 2.00002H21.4007L21.441 2.26485C21.8458 4.5409 23.6857 6.30621 26 6.5993V12.0674L25.7351 12.1077C23.4587 12.5126 21.6937 14.3528 21.4007 16.6667H6.59924L6.55896 16.4019C6.15414 14.1258 4.31427 12.3605 1.99996 12.0674V6.5993L2.26483 6.55901C4.54123 6.15409 6.30623 4.31394 6.59924 2.00002ZM1.99996 13.4007L2.24769 13.4508C3.79864 13.8157 4.99733 15.0803 5.26591 16.6667H1.99996V13.4007ZM22.7841 16.419C23.1489 14.868 24.4135 13.6693 26 13.4007V16.6667H22.734L22.7841 16.419ZM17 4.06122C19.0221 4.06122 20.6666 5.70575 20.6666 7.72789C20.6666 10.8779 18.5734 12.9152 16.7692 14.0862L16.3429 14.3507C16.1338 14.4748 15.9316 14.5866 15.7404 14.6868L15.3739 14.8714L15.0442 15.0255L14.7585 15.1497L14.4285 15.2816L14.2109 15.36C14.1419 15.3828 14.0716 15.3946 14 15.3946C13.9283 15.3946 13.858 15.3828 13.789 15.36L13.4758 15.2447L13.1045 15.0913L12.7959 14.9522L12.4469 14.783C12.2024 14.6599 11.9358 14.5161 11.657 14.3507L11.2307 14.0862C9.42656 12.9152 7.33329 10.8779 7.33329 7.72789C7.33329 5.70575 8.97782 4.06122 11 4.06122C12.2382 4.06122 13.3359 4.67841 14 5.62177C14.664 4.67841 15.7617 4.06122 17 4.06122ZM14.6666 7.72789C14.6666 8.09637 14.3684 8.39455 14 8.39455C13.6315 8.39455 13.3333 8.09637 13.3333 7.72789C13.3333 6.44143 12.2864 5.39455 11 5.39455C9.7135 5.39455 8.66663 6.44143 8.66663 7.72789C8.66663 10.7296 11.1446 12.564 12.7871 13.45L13.1636 13.6445L13.4978 13.8033L13.7795 13.927L13.9987 14.0163L14.3515 13.8686L14.6609 13.7267L15.0176 13.5494L15.4116 13.336C17.0482 12.4091 19.3333 10.6005 19.3333 7.72789C19.3333 6.44143 18.2864 5.39455 17 5.39455C15.7135 5.39455 14.6666 6.44143 14.6666 7.72789ZM26 2.00002V5.26597L25.7522 5.21592C24.2013 4.85103 23.0026 3.58645 22.734 2.00002H26ZM1.99996 2.00002H5.26591L5.21586 2.24775C4.85097 3.7987 3.58639 4.99739 1.99996 5.26597V2.00002Z" fill="#EC0000"/>
</svg>
