<svg width="16" height="28" viewBox="0 0 16 28" fill="none" xmlns="http://www.w3.org/2000/svg">
<path d="M15.9928 3.08818C15.8928 1.73617 14.7612 0.666626 13.3841 0.666626H2.61589L2.42091 0.673817C1.06895 0.773893 0 1.90603 0 3.28316V24.7168L0.00718689 24.9117C0.107209 26.2638 1.23875 27.3333 2.61589 27.3333H13.3841L13.5791 27.3261C14.9311 27.226 16 26.0939 16 24.7168V3.28316L15.9928 3.08818ZM2.61589 1.99996H13.3841L13.5334 2.00861C14.1704 2.08285 14.6667 2.62603 14.6667 3.28316V24.7168L14.658 24.8662C14.5838 25.5037 14.0406 26 13.3841 26H2.61589L2.46655 25.9913C1.82957 25.9171 1.33333 25.3739 1.33333 24.7168V3.28316L1.34198 3.1337C1.41622 2.4962 1.95936 1.99996 2.61589 1.99996ZM8.66667 23.3333C9.03516 23.3333 9.33333 23.6315 9.33333 24C9.33333 24.3275 9.09774 24.5995 8.78658 24.6559L8.66667 24.6666H7.33333C6.96484 24.6666 6.66667 24.3684 6.66667 24C6.66667 23.6724 6.90226 23.4004 7.21342 23.344L7.33333 23.3333H8.66667ZM10.6667 3.99996C10.6667 3.63147 10.3685 3.33329 10 3.33329H6L5.88009 3.34402C5.56893 3.40042 5.33333 3.67241 5.33333 3.99996C5.33333 4.36845 5.63151 4.66663 6 4.66663H10L10.1199 4.6559C10.4311 4.5995 10.6667 4.32751 10.6667 3.99996Z" fill="#EC0000"/>
</svg>
